PathFileType	4	(X/Y/Z)	D:\TRACE\spot_10-12-23\spot_arm_motion_2_4-platform.trc
DataRate	CameraRate	NumFrames	NumMarkers	Units	OrigDataRate	OrigDataStartFrame	OrigNumFrames
100.00	100.00	      60	5	mm	100.00	6126	      7000
Frame#	Time	Left_Front			Right_Front			Left_Aft			Right_Aft			Post			
		X1	Y1	Z1	X2	Y2	Z2	X3	Y3	Z3	X4	Y4	Z4	X5	Y5	Z5	

6126	61.250	-776.04065	47.06674	-630.46014	796.51630	51.54377	-623.82910	-692.78510	-23.21120	505.30548	724.60870	-23.58267	591.25714	6.83869	803.07025	-902.66333	
6127	61.260	-777.22546	45.83264	-630.86755	795.38818	50.34599	-624.10187	-693.97870	-22.43500	504.95969	723.42078	-22.66137	590.95508	5.57572	801.33710	-904.31757	
6128	61.270	-778.42346	44.95656	-631.31714	794.22253	49.09025	-624.36664	-695.02081	-21.65868	504.78009	722.34503	-21.81207	590.83038	4.48082	799.64941	-905.89624	
6129	61.280	-779.57953	43.76384	-631.52216	793.25061	47.87214	-624.65662	-696.12201	-20.82186	504.49005	720.84485	-20.88502	590.45642	3.40400	798.03796	-907.47742	
6130	61.290	-780.66077	42.29830	-631.96655	792.00720	46.75072	-625.15405	-697.35065	-19.85772	504.49460	719.90710	-19.93203	590.32678	2.11810	796.51355	-909.25385	
6131	61.300	-781.86902	41.45509	-632.44684	790.76483	45.69801	-625.46490	-698.37146	-19.19789	504.19373	718.72534	-18.93608	589.99731	1.09750	794.84003	-911.18939	
6132	61.310	-782.83252	40.17253	-632.60944	789.73688	44.37919	-625.77997	-699.50873	-18.20918	503.98993	717.67084	-17.75727	589.79272	-0.23054	792.92957	-912.79492	
6133	61.320	-783.89709	38.56388	-632.80670	788.67090	43.15411	-626.16241	-700.66064	-17.56174	503.52118	716.58899	-16.78601	589.63361	-1.33947	791.20734	-914.27374	
6134	61.330	-785.12158	37.60326	-633.45233	787.38763	41.79889	-626.64850	-702.02997	-16.44337	503.18750	715.44354	-15.64352	589.32196	-2.42087	789.56586	-916.35632	
6135	61.340	-786.39532	36.54581	-633.67902	786.49426	40.68918	-626.89929	-703.00299	-15.62243	503.05249	714.30310	-14.74518	589.16077	-3.63702	787.73297	-918.31989	
6136	61.350	-787.38434	35.07908	-634.11652	785.30872	39.33785	-627.21362	-704.20435	-14.59694	502.72510	712.95514	-13.71917	588.76312	-4.69293	785.91016	-920.15283	
6137	61.360	-788.39117	33.38493	-634.50079	784.01965	38.22634	-627.61853	-705.24677	-13.78750	502.49554	711.96344	-12.54841	588.57288	-5.67590	783.96765	-921.85303	
6138	61.370	-789.76202	32.31861	-634.88629	782.97632	36.56661	-628.09290	-706.60144	-12.84093	502.06149	710.81372	-11.51431	588.35767	-7.07547	782.25702	-923.66101	
6139	61.380	-790.89685	31.13949	-635.27313	781.89941	35.37951	-628.30304	-707.51398	-11.94629	501.93198	709.66138	-10.35194	588.04291	-8.46685	780.22461	-925.63837	
6140	61.390	-791.99939	29.75707	-635.72131	780.71350	33.98790	-628.85114	-708.69061	-10.80174	501.65985	708.62921	-9.33479	587.83942	-9.38343	778.02313	-927.45697	
6141	61.400	-793.10199	28.30651	-636.05676	779.77679	32.87730	-628.84735	-709.75531	-10.03419	501.26062	707.28870	-8.13792	587.29993	-10.09932	776.24207	-929.23401	
6142	61.410	-794.22375	26.88302	-636.24890	778.48169	31.29171	-629.45874	-710.97034	-9.17481	500.99060	706.20203	-7.23114	587.05658	-10.97721	774.19861	-931.19824	
6143	61.420	-795.35272	25.56097	-636.65686	777.40094	29.89492	-629.89545	-712.09949	-8.14747	500.64859	705.13647	-5.99421	586.79773	-12.41202	772.27173	-933.07074	
6144	61.430	-796.44092	24.30112	-637.22058	776.38385	28.58512	-630.18347	-713.16754	-7.13236	500.63623	703.99243	-4.95076	586.53442	-13.51070	770.26422	-935.10217	
6145	61.440	-797.52191	22.94243	-637.55701	775.00885	27.03774	-630.47461	-714.29901	-6.31452	500.12015	703.03015	-3.65445	586.35962	-14.82401	768.37952	-937.24200	
6146	61.450	-798.56274	21.22356	-637.65533	774.11249	26.01558	-630.95795	-715.59747	-5.21719	499.61346	701.77832	-2.56345	585.93292	-15.96444	765.98035	-938.58832	
6147	61.460	-799.93555	20.12291	-638.20697	773.01154	24.35651	-631.08813	-716.58606	-4.33390	499.50662	700.67596	-1.44567	585.68250	-16.65058	764.07446	-940.92731	
6148	61.470	-800.83197	18.68755	-638.62335	771.86292	23.00880	-631.61365	-717.87585	-3.11363	499.12546	699.55573	-0.37867	585.37567	-17.97664	761.92584	-942.92682	
6149	61.480	-801.90198	17.32799	-638.95117	770.84875	21.64600	-632.07001	-718.90356	-2.33167	498.91562	698.56091	0.81392	585.12689	-19.06591	759.94189	-945.03247	
6150	61.490	-802.97797	15.80570	-639.23676	769.54346	20.01193	-632.40070	-719.84650	-1.36124	498.57651	697.53851	2.03495	584.65710	-20.03058	757.97211	-946.86108	
6151	61.500	-804.13708	14.38895	-639.64484	768.47662	18.83368	-632.71692	-721.02911	-0.36347	498.15643	696.26672	3.18588	584.26123	-20.84703	755.92792	-948.62756	
6152	61.510	-805.12018	12.90664	-639.98981	767.63306	17.41549	-633.06421	-721.90186	0.62168	498.05066	695.30951	4.27616	583.98773	-21.99807	753.94800	-950.70441	
6153	61.520	-806.22943	11.75841	-640.36249	766.60028	16.13827	-633.30463	-723.18011	1.69765	497.55826	694.05255	5.36383	583.68549	-23.38081	751.73285	-952.44482	
6154	61.530	-807.31934	10.15142	-640.64783	765.33496	14.49624	-633.82928	-724.22833	2.60673	497.26059	693.19641	6.59918	583.43622	-24.42066	749.77264	-954.59576	
6155	61.540	-807.88940	8.35452	-641.34686	764.27087	12.95251	-634.31445	-725.17255	3.37814	497.14850	692.14771	7.73234	583.07892	-25.27021	747.43573	-956.26196	
6156	61.550	-809.49744	7.37059	-641.35352	763.42737	11.77071	-634.33984	-726.13696	4.59397	496.74088	691.08533	9.07751	582.62213	-26.22599	745.41956	-958.23291	
6157	61.560	-810.35730	6.14022	-641.79401	762.33661	10.18069	-634.63397	-727.10358	5.42347	496.53308	690.12317	10.03808	582.32129	-27.34612	743.37817	-960.19885	
6158	61.570	-811.57751	4.70261	-642.04272	761.45984	8.91850	-635.15363	-728.32098	6.47344	495.78802	688.88019	11.28000	581.88641	-28.33116	741.14063	-962.11957	
6159	61.580	-812.49286	3.20153	-642.39282	760.28455	7.35546	-635.55109	-729.33875	7.38799	495.43237	688.05469	12.38003	581.61768	-29.07845	739.06378	-963.92871	
6160	61.590	-813.16034	1.36326	-642.69055	759.22021	6.02661	-635.96576	-730.24585	8.35036	495.20959	687.09271	13.64646	581.37262	-30.87204	737.18951	-965.93311	
6161	61.600	-814.38336	0.29650	-643.03241	758.55200	4.52871	-636.11572	-731.17859	9.53307	494.81805	686.11108	14.70103	580.91681	-31.30802	734.77081	-967.85980	
6162	61.610	-815.30792	-1.10565	-643.41663	757.56378	3.20229	-636.40698	-732.17804	10.43119	494.51053	685.23877	15.75051	580.65851	-31.99681	732.71973	-969.68622	
6163	61.620	-816.18542	-2.63560	-643.75702	756.19067	1.83246	-636.89130	-733.02435	11.24454	494.11029	684.18567	16.92049	580.30725	-32.59908	730.64276	-971.48816	
6164	61.630	-817.13800	-3.95134	-643.96454	755.72302	0.24627	-637.19617	-733.89050	12.31152	493.79562	683.32990	18.08928	580.01166	-33.59518	728.71533	-973.54230	
6165	61.640	-817.89380	-5.38647	-644.30524	754.67157	-1.09631	-637.42914	-734.71814	13.24359	493.51791	682.59534	19.37123	579.55579	-34.75599	726.51294	-975.41309	
6166	61.650	-818.62231	-7.05510	-644.61676	753.93970	-2.52793	-637.68915	-735.74554	14.24584	492.92816	681.42389	20.18129	579.16473	-35.37461	724.51654	-977.15216	
6167	61.660	-819.86865	-8.13977	-644.85059	753.09485	-3.67173	-637.89355	-736.58649	15.12278	492.60544	680.76288	21.35308	578.87402	-36.39862	722.29456	-979.06030	
6168	61.670	-820.67676	-9.22480	-645.29376	752.08661	-5.26505	-638.49005	-737.25513	15.97723	492.34177	680.03693	22.43317	578.53412	-37.33228	720.40143	-980.81201	
6169	61.680	-821.33118	-10.75471	-645.48383	751.45050	-6.38260	-638.63116	-738.25067	17.13452	491.98434	679.05511	23.66057	578.19678	-37.95344	718.22089	-982.49475	
6170	61.690	-822.16895	-12.16600	-645.73065	750.50128	-7.88899	-638.66638	-738.87476	17.74252	491.83270	678.44421	24.61713	577.91919	-38.92410	716.21973	-984.20819	
6171	61.700	-822.88275	-13.61350	-646.02069	749.88715	-9.07856	-639.24469	-739.87927	18.88122	491.31403	677.69415	25.54958	577.53503	-39.48454	714.37024	-985.82092	
6172	61.710	-823.53247	-15.07787	-646.34662	749.08691	-10.54603	-639.37122	-740.54132	19.48754	491.04788	676.64423	26.68609	577.07861	-40.41028	712.31287	-987.41565	
6173	61.720	-824.09253	-16.37951	-646.69580	748.56348	-11.70017	-639.67450	-741.38794	20.56203	490.63428	676.04919	27.72134	576.73511	-41.18914	710.42426	-989.14893	
6174	61.730	-825.06506	-17.32749	-646.97003	747.63086	-13.13267	-640.10242	-741.84460	21.44120	490.47388	675.46802	28.97378	576.51685	-41.66434	708.41718	-990.78833	
6175	61.740	-825.62878	-19.00068	-647.19867	746.78241	-14.35542	-640.42212	-742.46051	22.25722	490.13721	674.62836	29.83202	576.10828	-42.44339	706.41211	-992.70850	
6176	61.750	-826.29071	-20.17295	-647.45178	746.50989	-15.64358	-640.53101	-743.33362	23.18684	489.78888	673.98248	30.90277	575.66382	-42.91386	704.50269	-993.91248	
6177	61.760	-826.76959	-21.37657	-647.60846	745.93341	-17.05053	-640.70264	-743.66046	23.91418	489.38760	673.54004	31.83837	575.49219	-43.51232	702.41211	-995.91254	
6178	61.770	-827.28741	-22.74254	-647.85339	745.28955	-18.30295	-640.72845	-744.37897	24.95074	488.95398	673.06360	32.82639	575.20355	-44.39685	700.60736	-997.41528	
6179	61.780	-827.97791	-23.96727	-648.07294	744.68909	-19.49913	-641.16168	-744.87189	25.73527	488.68680	672.41016	33.92049	574.76666	-44.76761	698.55267	-999.02655	
6180	61.790	-828.54602	-25.01177	-648.33099	744.25598	-20.69223	-641.43549	-745.40942	26.46302	488.35208	671.80786	34.90007	574.42792	-45.16864	698.19128	-1000.56665	
6181	61.800	-828.72040	-26.66777	-648.57446	743.63177	-21.92686	-641.67175	-746.04279	27.30305	487.99075	671.27557	35.74031	574.06531	-45.75179	694.87158	-1002.18231	
6182	61.810	-829.02356	-27.93018	-648.93250	743.14484	-22.86154	-642.01172	-746.46869	27.85941	487.77811	670.96979	36.70473	573.79089	-46.14169	693.04572	-1003.88837	
6183	61.820	-829.36200	-29.01698	-649.21136	742.79358	-24.34836	-642.23566	-746.76569	28.83883	487.35852	670.46576	37.62840	573.39099	-46.64451	691.44305	-1005.21991	
6184	61.830	-830.10583	-29.92382	-649.36981	742.77124	-25.35907	-642.38165	-747.02496	29.75117	487.38223	670.09100	38.62597	573.08075	-46.57041	689.65179	-1006.57275	
6185	61.840	-830.13068	-31.32465	-649.48657	742.20245	-26.53589	-642.64587	-747.39893	30.38490	486.98633	670.07544	39.37565	572.88580	-47.15174	687.83594	-1008.13715	
